# xmcd CD database file
#
# Track frame offsets:
#	150
#	17918
#	32513
#	46864
#	60318
#	77594
#	95985
#	120305
#	138778
#	156889
#	172092
#	193429
#
# Disc length: 2809 seconds
#
# Revision: 0
# Processed by: cddbd v1.5.2PL0 Copyright (c) Steve Scherf et al.
# Submitted via: CDex 1.70beta2
#
DISCID=990af70c
DTITLE=Brunner/Eckl - Interplay
DYEAR=2001
DGENRE=Blues
TTITLE0=Westcoast Blues
TTITLE1=Ba-Lue Bolivar Ba-Lues Are
TTITLE2=You'd Be So Nice To Come Home
TTITLE3=Jordu
TTITLE4=Jubilation
TTITLE5=Laverne Walk
TTITLE6=Canto De Ossanha
TTITLE7=Boplicity
TTITLE8=Line For Lions
TTITLE9=In A Mellow Tone
TTITLE10=Blues For Alice
TTITLE11=The Days Of Wine And Roses
EXTD=YEAR: 2001
EXTT0=
EXTT1=
EXTT2=
EXTT3=
EXTT4=
EXTT5=
EXTT6=
EXTT7=
EXTT8=
EXTT9=
EXTT10=
EXTT11=
PLAYORDER=
